<svg width="508" height="256" viewBox="0 0 508 256" fill="none" xmlns="http://www.w3.org/2000/svg">
<path d="M26.4943 106.976C26.9188 111.906 28.9845 115.976 32.6915 119.185C36.4281 122.359 40.745 123.736 45.6423 123.314C50.5071 122.895 54.509 120.802 57.648 117.036C60.8166 113.235 62.1886 108.869 61.7641 103.939C61.3452 99.0745 59.2512 95.0564 55.4822 91.885C51.7455 88.7108 47.4448 87.3332 42.58 87.7521C37.6503 88.1766 33.6322 90.2706 30.5257 94.034C27.4192 97.7975 26.0753 102.112 26.4943 106.976ZM28.1867 126.63L28.9826 135.873L14.826 137.092L8.39148 62.369L22.5481 61.15L24.7348 86.5443L24.9294 86.5275C29.3458 79.384 35.4621 75.4757 43.2782 74.8026C51.7754 74.0709 59.2443 76.3846 65.6849 81.7438C72.1551 87.0677 75.7616 94.0431 76.5045 102.67C77.253 111.362 74.8962 118.9 69.4342 125.284C64.0018 131.633 57.037 135.173 48.5398 135.905C44.0966 136.287 40.1464 135.566 36.6893 133.74C33.2618 131.878 30.4924 129.503 28.3813 126.614L28.1867 126.63ZM88.9657 130.708L83.9974 73.0116L98.154 71.7925L98.841 79.7708L99.0356 79.7541C102.274 72.9733 106.878 69.326 112.845 68.8122L114.256 68.6907L115.492 83.0419L111.989 83.3435C108.616 83.6339 105.812 85.0352 103.578 87.5473C101.344 90.0595 100.243 93.0132 100.274 96.4085L103.122 129.489L88.9657 130.708ZM183.53 93.4539C183.689 95.3025 183.61 97.4167 183.292 99.7965L136.736 103.806C137.832 107.044 139.99 109.717 143.21 111.825C146.43 113.932 150.002 114.817 153.926 114.479C156.78 114.234 159.27 113.366 161.396 111.876C163.555 110.383 165.184 108.625 166.284 106.603L181.657 105.279C180.111 111.228 176.893 116.161 172.002 120.078C167.109 123.963 161.436 126.183 154.982 126.739C146.29 127.487 138.643 125.189 132.04 119.844C125.467 114.463 121.809 107.46 121.066 98.8328C120.323 90.2058 122.749 82.711 128.344 76.3481C133.968 69.9501 141.158 66.3741 149.915 65.62C158.477 64.8827 166.03 67.2219 172.573 72.6375C179.146 78.0179 182.799 84.9567 183.53 93.4539ZM135.909 91.9186L167.919 89.1622C166.857 85.5616 164.81 82.6504 161.776 80.4285C158.739 78.1742 155.129 77.2272 150.945 77.5875C146.827 77.9421 143.399 79.4952 140.663 82.2466C137.924 84.9656 136.339 88.1896 135.909 91.9186Z" fill="#E0DFDB"/>
<path fill-rule="evenodd" clip-rule="evenodd" d="M232.563 64.237C228.021 60.93 222.849 59.5264 217.045 60.0262C208.548 60.7579 201.568 64.3158 196.106 70.6998C190.674 77.0487 188.329 84.5366 189.072 93.1635C189.82 101.855 193.415 108.881 199.855 114.24C204.62 118.16 209.933 120.438 215.796 121.075L219.589 108.218C216.096 107.879 212.919 106.506 210.058 104.099C206.319 100.892 204.237 96.8238 203.812 91.8942C203.396 87.0618 204.758 82.7625 207.897 78.9962C211.065 75.1947 215.082 73.0845 219.947 72.6656C223.446 72.3643 226.64 72.9815 229.53 74.5173L232.563 64.237Z" fill="#E0DFDB"/>
<path fill-rule="evenodd" clip-rule="evenodd" d="M214.745 121.02C216.634 121.964 218.663 122.736 220.83 123.335C225.129 124.522 229.129 124.529 232.83 123.356C236.571 122.161 239.743 120.335 242.346 117.88L242.534 117.932L240.064 126.874L253.761 130.657L269.178 74.837L255.482 71.0541L253.246 79.1494L253.058 79.0975C252.274 77.0597 251.335 75.2162 250.241 73.567L243.821 82.1498C244.69 83.127 245.462 84.2248 246.138 85.4432C248.537 89.7192 249.086 94.2105 247.786 98.9171C246.469 103.686 243.695 107.31 239.464 109.789C235.242 112.237 230.747 112.802 225.978 111.484C224.844 111.171 223.776 110.772 222.775 110.285L214.745 121.02Z" fill="#E0DFDB"/>
<path d="M311.216 87.0663L329.436 92.2571L297.317 111.081L313.57 147.951L296.429 143.068L285.518 117.925L277.695 122.753L273.748 136.606L260.083 132.713L280.632 60.5833L294.297 64.4764L283.059 103.922L311.216 87.0663ZM336.339 94.2237L350.005 98.1168L334.138 153.811L320.473 149.918L336.339 94.2237ZM339.279 88.004C338.169 85.9614 337.926 83.8444 338.55 81.653C339.174 79.4615 340.496 77.7904 342.517 76.6398C344.568 75.498 346.705 75.2437 348.928 75.877C351.182 76.5191 352.864 77.8615 353.975 79.9041C355.085 81.9466 355.328 84.0636 354.704 86.2551C354.08 88.4465 352.757 90.1176 350.737 91.2683C348.717 92.419 346.58 92.6732 344.326 92.0311C342.103 91.3978 340.421 90.0555 339.279 88.004ZM359.308 160.982L345.643 157.089L361.51 101.394L375.175 105.288L372.74 113.834L372.928 113.888C378.338 108.084 384.691 106.221 391.985 108.3C398.403 110.128 402.987 113.82 405.736 119.376C408.495 124.9 408.88 131.153 406.891 138.135L397.299 171.805L383.633 167.912L392.945 135.228C393.917 131.815 393.552 128.581 391.851 125.523C390.158 122.435 387.653 120.418 384.334 119.473C380.922 118.501 377.683 118.881 374.617 120.614C371.591 122.324 369.592 124.885 368.62 128.298L359.308 160.982ZM431.406 201.068C423.955 198.946 418.227 195.351 414.221 190.283C410.238 185.256 408.644 179.623 409.44 173.385L423.762 177.465C423.675 180.148 424.643 182.573 426.665 184.74C428.688 186.907 431.374 188.468 434.724 189.422C439.671 190.832 443.82 190.761 447.172 189.212C450.547 187.702 452.894 184.631 454.214 179.998L455.445 175.677L455.217 175.409C452.41 177.182 449.257 178.45 445.756 179.213C442.256 179.975 438.784 179.866 435.34 178.885C427.513 176.655 421.704 172.276 417.912 165.746C414.128 159.185 413.352 151.991 415.581 144.164C417.793 136.4 422.24 130.712 428.922 127.098C435.604 123.485 442.858 122.793 450.685 125.022C454.723 126.173 457.967 128.095 460.414 130.79C462.871 133.453 464.573 136.273 465.518 139.25L465.854 139.143L467.967 131.723L481.633 135.616L467.625 184.783C465.414 192.547 461.047 197.835 454.525 200.648C448.035 203.47 440.329 203.61 431.406 201.068ZM431.141 160.477C433.259 164.33 436.462 166.867 440.751 168.089C445.071 169.32 449.178 168.865 453.071 166.725C456.973 164.554 459.535 161.323 460.756 157.034C461.978 152.745 461.499 148.666 459.318 144.795C457.147 140.893 453.901 138.327 449.581 137.096C445.292 135.874 441.228 136.358 437.388 138.547C433.558 140.705 431.032 143.929 429.81 148.218C428.588 152.507 429.032 156.593 431.141 160.477Z" fill="#E0DFDB"/>
</svg>
