<svg width="347" height="82" viewBox="0 0 347 82" fill="none" xmlns="http://www.w3.org/2000/svg">
<circle cx="41" cy="41" r="38" fill="white" stroke="black" stroke-width="6"/>
<path d="M37.75 48.293H52.0859V53H30.4258V49.5625L44.4883 29.3086H30.4453V24.5625H51.7734V27.9219L37.75 48.293Z" fill="black"/>
<path d="M104 34.2344H115.469V38H98.1406V35.25L109.391 19.0469H98.1562V15.25H115.219V17.9375L104 34.2344ZM124.186 38H119.655V21.0938H124.186V38ZM119.389 16.7188C119.389 16.0417 119.613 15.4844 120.061 15.0469C120.52 14.6094 121.139 14.3906 121.921 14.3906C122.691 14.3906 123.306 14.6094 123.764 15.0469C124.223 15.4844 124.452 16.0417 124.452 16.7188C124.452 17.4062 124.218 17.9688 123.749 18.4062C123.29 18.8438 122.681 19.0625 121.921 19.0625C121.16 19.0625 120.546 18.8438 120.077 18.4062C119.619 17.9688 119.389 17.4062 119.389 16.7188ZM133.607 22.9375C134.805 21.5 136.31 20.7812 138.122 20.7812C141.789 20.7812 143.649 22.9115 143.701 27.1719V38H139.185V27.2969C139.185 26.3281 138.977 25.6146 138.56 25.1562C138.143 24.6875 137.451 24.4531 136.482 24.4531C135.159 24.4531 134.201 24.9635 133.607 25.9844V38H129.091V14H133.607V22.9375ZM158.184 38C157.975 37.5938 157.824 37.0885 157.731 36.4844C156.637 37.7031 155.215 38.3125 153.465 38.3125C151.809 38.3125 150.434 37.8333 149.34 36.875C148.257 35.9167 147.715 34.7083 147.715 33.25C147.715 31.4583 148.376 30.0833 149.699 29.125C151.033 28.1667 152.955 27.6823 155.465 27.6719H157.543V26.7031C157.543 25.9219 157.34 25.2969 156.934 24.8281C156.538 24.3594 155.908 24.125 155.043 24.125C154.283 24.125 153.684 24.3073 153.246 24.6719C152.819 25.0365 152.606 25.5365 152.606 26.1719H148.09C148.09 25.1927 148.392 24.2865 148.996 23.4531C149.6 22.6198 150.455 21.9688 151.559 21.5C152.663 21.0208 153.903 20.7812 155.278 20.7812C157.361 20.7812 159.012 21.3073 160.231 22.3594C161.46 23.401 162.074 24.8698 162.074 26.7656V34.0938C162.085 35.6979 162.309 36.9115 162.746 37.7344V38H158.184ZM154.449 34.8594C155.116 34.8594 155.731 34.7135 156.293 34.4219C156.856 34.1198 157.272 33.7188 157.543 33.2188V30.3125H155.856C153.595 30.3125 152.392 31.0938 152.246 32.6562L152.231 32.9219C152.231 33.4844 152.429 33.9479 152.824 34.3125C153.22 34.6771 153.762 34.8594 154.449 34.8594ZM166.12 29.4219C166.12 26.7865 166.709 24.6875 167.886 23.125C169.073 21.5625 170.693 20.7812 172.745 20.7812C174.391 20.7812 175.75 21.3958 176.823 22.625V14H181.354V38H177.276L177.058 36.2031C175.933 37.6094 174.485 38.3125 172.714 38.3125C170.724 38.3125 169.125 37.5312 167.917 35.9688C166.719 34.3958 166.12 32.2135 166.12 29.4219ZM170.636 29.75C170.636 31.3333 170.912 32.5469 171.464 33.3906C172.016 34.2344 172.818 34.6562 173.87 34.6562C175.266 34.6562 176.25 34.0677 176.823 32.8906V26.2188C176.261 25.0417 175.287 24.4531 173.901 24.4531C171.724 24.4531 170.636 26.2188 170.636 29.75ZM201.805 15.25L207.649 31.75L213.461 15.25H219.618V38H214.914V31.7812L215.383 21.0469L209.243 38H206.024L199.899 21.0625L200.368 31.7812V38H195.68V15.25H201.805ZM234.491 38C234.283 37.5938 234.132 37.0885 234.038 36.4844C232.944 37.7031 231.522 38.3125 229.772 38.3125C228.116 38.3125 226.741 37.8333 225.647 36.875C224.564 35.9167 224.022 34.7083 224.022 33.25C224.022 31.4583 224.684 30.0833 226.007 29.125C227.34 28.1667 229.262 27.6823 231.772 27.6719H233.851V26.7031C233.851 25.9219 233.647 25.2969 233.241 24.8281C232.845 24.3594 232.215 24.125 231.351 24.125C230.59 24.125 229.991 24.3073 229.554 24.6719C229.127 25.0365 228.913 25.5365 228.913 26.1719H224.397C224.397 25.1927 224.7 24.2865 225.304 23.4531C225.908 22.6198 226.762 21.9688 227.866 21.5C228.97 21.0208 230.21 20.7812 231.585 20.7812C233.668 20.7812 235.319 21.3073 236.538 22.3594C237.767 23.401 238.382 24.8698 238.382 26.7656V34.0938C238.392 35.6979 238.616 36.9115 239.054 37.7344V38H234.491ZM230.757 34.8594C231.424 34.8594 232.038 34.7135 232.601 34.4219C233.163 34.1198 233.58 33.7188 233.851 33.2188V30.3125H232.163C229.903 30.3125 228.7 31.0938 228.554 32.6562L228.538 32.9219C228.538 33.4844 228.736 33.9479 229.132 34.3125C229.528 34.6771 230.069 34.8594 230.757 34.8594ZM247.896 38H243.365V14H247.896V38ZM257.676 38H253.145V21.0938H257.676V38ZM252.879 16.7188C252.879 16.0417 253.103 15.4844 253.551 15.0469C254.01 14.6094 254.629 14.3906 255.411 14.3906C256.181 14.3906 256.796 14.6094 257.254 15.0469C257.713 15.4844 257.942 16.0417 257.942 16.7188C257.942 17.4062 257.708 17.9688 257.239 18.4062C256.78 18.8438 256.171 19.0625 255.411 19.0625C254.65 19.0625 254.036 18.8438 253.567 18.4062C253.109 17.9688 252.879 17.4062 252.879 16.7188ZM268.831 31.2188L267.206 32.8438V38H262.691V14H267.206V27.2969L268.081 26.1719L272.409 21.0938H277.831L271.722 28.1406L278.363 38H273.175L268.831 31.2188Z" fill="black"/>
<path d="M108.338 66.8359L110.307 57.2031H112.513L109.56 70H107.433L104.998 60.6572L102.511 70H100.375L97.4219 57.2031H99.6279L101.614 66.8184L104.058 57.2031H105.921L108.338 66.8359ZM127.018 64.2871H121.762V68.2246H127.906V70H119.539V57.2031H127.844V58.9961H121.762V62.5293H127.018V64.2871ZM135.116 70V57.2031H139.502C140.949 57.2031 142.051 57.4932 142.807 58.0732C143.563 58.6533 143.941 59.5176 143.941 60.666C143.941 61.252 143.782 61.7793 143.466 62.248C143.15 62.7168 142.687 63.0801 142.077 63.3379C142.769 63.5254 143.302 63.8799 143.677 64.4014C144.058 64.917 144.248 65.5381 144.248 66.2646C144.248 67.4658 143.862 68.3887 143.088 69.0332C142.321 69.6777 141.219 70 139.783 70H135.116ZM137.34 64.2256V68.2246H139.81C140.507 68.2246 141.052 68.0518 141.445 67.7061C141.837 67.3604 142.033 66.8799 142.033 66.2646C142.033 64.9346 141.354 64.2549 139.994 64.2256H137.34ZM137.34 62.5908H139.52C140.211 62.5908 140.75 62.4355 141.137 62.125C141.529 61.8086 141.726 61.3633 141.726 60.7891C141.726 60.1562 141.544 59.6992 141.181 59.418C140.823 59.1367 140.264 58.9961 139.502 58.9961H137.34V62.5908ZM161.209 66.5459C161.209 65.9541 161.371 65.4121 161.693 64.9199C162.015 64.4219 162.651 63.833 163.6 63.1533C163.102 62.5264 162.753 61.9932 162.554 61.5537C162.361 61.1143 162.264 60.6895 162.264 60.2793C162.264 59.2773 162.569 58.4863 163.178 57.9062C163.787 57.3203 164.608 57.0273 165.639 57.0273C166.571 57.0273 167.332 57.3027 167.924 57.8535C168.522 58.3984 168.821 59.0752 168.821 59.8838C168.821 60.417 168.686 60.9092 168.416 61.3604C168.147 61.8057 167.704 62.251 167.089 62.6963L166.219 63.3291L168.689 66.2471C169.046 65.5439 169.225 64.7617 169.225 63.9004H171.079C171.079 65.4766 170.71 66.7686 169.972 67.7764L171.853 70H169.374L168.654 69.1475C167.74 69.833 166.65 70.1758 165.384 70.1758C164.119 70.1758 163.105 69.8418 162.343 69.1738C161.587 68.5 161.209 67.624 161.209 66.5459ZM165.446 68.4707C166.166 68.4707 166.84 68.2305 167.467 67.75L164.672 64.4541L164.4 64.6475C163.697 65.1807 163.345 65.79 163.345 66.4756C163.345 67.0674 163.536 67.5479 163.916 67.917C164.297 68.2861 164.807 68.4707 165.446 68.4707ZM164.268 60.2266C164.268 60.7188 164.57 61.3369 165.173 62.0811L166.149 61.4131L166.421 61.1934C166.785 60.8711 166.966 60.458 166.966 59.9541C166.966 59.6201 166.84 59.3359 166.588 59.1016C166.336 58.8613 166.017 58.7412 165.63 58.7412C165.214 58.7412 164.883 58.8818 164.637 59.1631C164.391 59.4443 164.268 59.7988 164.268 60.2266ZM197.911 57.2031V65.7549C197.911 67.1143 197.474 68.1924 196.601 68.9893C195.734 69.7803 194.577 70.1758 193.129 70.1758C191.665 70.1758 190.502 69.7861 189.64 69.0068C188.779 68.2217 188.348 67.1348 188.348 65.7461V57.2031H190.563V65.7637C190.563 66.6191 190.78 67.2725 191.213 67.7236C191.647 68.1748 192.286 68.4004 193.129 68.4004C194.84 68.4004 195.696 67.498 195.696 65.6934V57.2031H197.911ZM208.039 70H205.824V57.2031H208.039V70ZM226.055 70V57.2031H229.834C230.965 57.2031 231.967 57.4551 232.84 57.959C233.719 58.4629 234.399 59.1777 234.879 60.1035C235.36 61.0293 235.6 62.0898 235.6 63.2852V63.9268C235.6 65.1396 235.357 66.2061 234.871 67.126C234.39 68.0459 233.702 68.7549 232.805 69.2529C231.914 69.751 230.892 70 229.738 70H226.055ZM228.279 58.9961V68.2246H229.729C230.895 68.2246 231.788 67.8613 232.41 67.1348C233.037 66.4023 233.356 65.3535 233.368 63.9883V63.2764C233.368 61.8877 233.066 60.8271 232.462 60.0947C231.859 59.3623 230.983 58.9961 229.834 58.9961H228.279ZM250.694 64.2871H245.438V68.2246H251.582V70H243.215V57.2031H251.521V58.9961H245.438V62.5293H250.694V64.2871ZM265.481 66.7041C265.481 66.1416 265.282 65.708 264.883 65.4033C264.491 65.0986 263.779 64.791 262.748 64.4805C261.716 64.1699 260.896 63.8242 260.287 63.4434C259.121 62.7109 258.538 61.7559 258.538 60.5781C258.538 59.5469 258.957 58.6973 259.795 58.0293C260.638 57.3613 261.731 57.0273 263.073 57.0273C263.963 57.0273 264.757 57.1914 265.455 57.5195C266.152 57.8477 266.7 58.3164 267.098 58.9258C267.497 59.5293 267.696 60.2002 267.696 60.9385H265.481C265.481 60.2705 265.27 59.749 264.848 59.374C264.432 58.9932 263.835 58.8027 263.055 58.8027C262.329 58.8027 261.763 58.958 261.359 59.2686C260.961 59.5791 260.761 60.0127 260.761 60.5693C260.761 61.0381 260.978 61.4307 261.412 61.7471C261.845 62.0576 262.56 62.3623 263.556 62.6611C264.552 62.9541 265.352 63.291 265.956 63.6719C266.559 64.0469 267.002 64.4805 267.283 64.9727C267.564 65.459 267.705 66.0303 267.705 66.6865C267.705 67.7529 267.295 68.6025 266.474 69.2354C265.66 69.8623 264.552 70.1758 263.152 70.1758C262.226 70.1758 261.374 70.0059 260.594 69.666C259.821 69.3203 259.217 68.8457 258.784 68.2422C258.356 67.6387 258.142 66.9355 258.142 66.1328H260.366C260.366 66.8594 260.606 67.4219 261.087 67.8203C261.567 68.2188 262.255 68.418 263.152 68.418C263.925 68.418 264.505 68.2627 264.892 67.9521C265.285 67.6357 265.481 67.2197 265.481 66.7041ZM277.403 70H275.188V57.2031H277.403V70ZM295.345 68.3389C294.882 68.9424 294.24 69.3994 293.42 69.71C292.599 70.0205 291.668 70.1758 290.625 70.1758C289.553 70.1758 288.603 69.9326 287.777 69.4463C286.951 68.96 286.312 68.2656 285.861 67.3633C285.416 66.4551 285.184 65.3975 285.167 64.1904V63.1885C285.167 61.2549 285.63 59.7461 286.555 58.6621C287.481 57.5723 288.773 57.0273 290.431 57.0273C291.855 57.0273 292.986 57.3789 293.824 58.082C294.662 58.7852 295.166 59.7988 295.336 61.123H293.156C292.91 59.582 292.016 58.8115 290.475 58.8115C289.479 58.8115 288.721 59.1719 288.199 59.8926C287.683 60.6074 287.417 61.6592 287.399 63.0479V64.0322C287.399 65.415 287.689 66.4902 288.269 67.2578C288.855 68.0195 289.667 68.4004 290.704 68.4004C291.841 68.4004 292.649 68.1426 293.13 67.627V65.1221H290.493V63.4346H295.345V68.3389ZM313.339 70H311.116L305.412 60.9209V70H303.188V57.2031H305.412L311.133 66.3174V57.2031H313.339V70ZM328.847 64.2871H323.591V68.2246H329.734V70H321.367V57.2031H329.673V58.9961H323.591V62.5293H328.847V64.2871ZM341.647 65.0693H339.169V70H336.945V57.2031H341.445C342.921 57.2031 344.061 57.5342 344.864 58.1963C345.667 58.8584 346.068 59.8164 346.068 61.0703C346.068 61.9258 345.86 62.6436 345.444 63.2236C345.034 63.7979 344.46 64.2402 343.721 64.5508L346.595 69.8857V70H344.213L341.647 65.0693ZM339.169 63.2852H341.454C342.204 63.2852 342.79 63.0977 343.212 62.7227C343.633 62.3418 343.844 61.8232 343.844 61.167C343.844 60.4814 343.648 59.9512 343.255 59.5762C342.869 59.2012 342.289 59.0078 341.515 58.9961H339.169V63.2852Z" fill="black"/>
</svg>
