<svg width="44" height="28" viewBox="0 0 44 28" fill="none" xmlns="http://www.w3.org/2000/svg">
<path d="M43.8986 17.6027C43.263 13.2782 39.6448 10.1964 35.5376 9.99757C36.5644 6.12046 39.058 4.57957 42.0895 3.68485C42.3829 3.58544 42.334 3.2872 42.334 3.2872L41.845 0.205398C41.845 0.205398 41.7961 -0.0431337 41.405 0.00657276C30.9415 1.19953 23.8517 9.30168 25.1719 19.1436C26.3942 25.9533 31.626 28.5878 36.4666 27.8919C41.3072 27.0966 44.6321 22.5236 43.8986 17.6027ZM10.5034 9.99757C11.4813 6.12046 14.0727 4.57957 17.0553 3.68485C17.3487 3.58544 17.2998 3.2872 17.2998 3.2872L16.8597 0.205398C16.8597 0.205398 16.8108 -0.0431337 16.4197 0.00657276C5.95614 1.14982 -1.08473 9.25197 0.137644 19.0938C1.40891 25.9533 6.68957 28.5878 11.4813 27.8919C16.3219 27.0966 19.6467 22.5236 18.8644 17.6027C18.2288 13.2285 14.6594 10.1467 10.5034 9.99757Z" fill="#E0DFDB"/>
</svg>
